HIERARCHY
ROOT SpineBase
{
  OFFSET 0.000000 0.000000 0.000000
  CHANNELS 6 Xposition Yposition Zposition Zrotation Xrotation Yrotation
  JOINT SpineMid
  {
    OFFSET 0.000000 34.530442 0.000000
    CHANNELS 3 Zrotation Xrotation Yrotation
    JOINT SpineShoulder
    {
      OFFSET -0.117110 25.695330 -0.933998
      CHANNELS 3 Zrotation Xrotation Yrotation
      JOINT Neck
      {
        OFFSET -0.079633 8.532316 -0.687546
        CHANNELS 3 Zrotation Xrotation Yrotation
        JOINT Head
        {
          OFFSET -0.030429 12.898740 3.339928
          CHANNELS 3 Zrotation Xrotation Yrotation
          End Site
          {
            OFFSET 0 0 0
          }
        }
      }
      JOINT ShoulderLeft
      {
        OFFSET -14.361423 -5.873176 -7.298252
        CHANNELS 3 Zrotation Xrotation Yrotation
        JOINT ElbowLeft
        {
          OFFSET -5.810006 -27.791922 2.798837
          CHANNELS 3 Zrotation Xrotation Yrotation
          JOINT WristLeft
          {
            OFFSET -4.502198 -28.850766 8.046391
            CHANNELS 3 Zrotation Xrotation Yrotation
            JOINT HandLeft
            {
              OFFSET 0.183941 -4.312410 0.700555
              CHANNELS 3 Zrotation Xrotation Yrotation
              JOINT HandTipLeft
              {
                OFFSET 0.904924 -4.431663 0.090816
                CHANNELS 3 Zrotation Xrotation Yrotation
                End Site
                {
                  OFFSET 0 0 0
                }
              }
              JOINT ThumbLeft
              {
                OFFSET 1.036286 0.592451 1.337841
                CHANNELS 3 Zrotation Xrotation Yrotation
                End Site
                {
                  OFFSET 0 0 0
                }
              }
            }
          }
        }
      }
      JOINT ShoulderRight
      {
        OFFSET 16.375098 -5.457350 -2.637805
        CHANNELS 3 Zrotation Xrotation Yrotation
        JOINT ElbowRight
        {
          OFFSET 6.087340 -25.149947 5.452799
          CHANNELS 3 Zrotation Xrotation Yrotation
          JOINT WristRight
          {
            OFFSET 1.171057 -22.250173 7.303174
            CHANNELS 3 Zrotation Xrotation Yrotation
            JOINT HandRight
            {
              OFFSET -1.412371 -7.831466 2.058282
              CHANNELS 3 Zrotation Xrotation Yrotation
              JOINT HandTipRight
              {
                OFFSET 0.688646 -3.331416 -0.162892
                CHANNELS 3 Zrotation Xrotation Yrotation
                End Site
                {
                  OFFSET 0 0 0
                }
              }
              JOINT ThumbRight
              {
                OFFSET -1.916892 1.950135 -3.406373
                CHANNELS 3 Zrotation Xrotation Yrotation
                End Site
                {
                  OFFSET 0 0 0
                }
              }
            }
          }
        }
      }
    }
  }
  JOINT HipLeft
  {
    OFFSET -7.242093 1.962585 -4.783534
    CHANNELS 3 Zrotation Xrotation Yrotation
    JOINT KneeLeft
    {
      OFFSET -1.002154 -32.064203 -3.308943
      CHANNELS 3 Zrotation Xrotation Yrotation
      JOINT AnkleLeft
      {
        OFFSET -1.882274 -33.948073 -5.659563
        CHANNELS 3 Zrotation Xrotation Yrotation
        JOINT FootLeft
        {
          OFFSET 4.413751 -6.075965 -6.413266
          CHANNELS 3 Zrotation Xrotation Yrotation
          End Site
          {
            OFFSET 0 0 0
          }
        }
      }
    }
  }
  JOINT HipRight
  {
    OFFSET 6.586468 1.416596 -2.415580
    CHANNELS 3 Zrotation Xrotation Yrotation
    JOINT KneeRight
    {
      OFFSET 7.415183 -33.156787 -2.840633
      CHANNELS 3 Zrotation Xrotation Yrotation
      JOINT AnkleRight
      {
        OFFSET 1.268287 -30.827803 -1.886721
        CHANNELS 3 Zrotation Xrotation Yrotation
        JOINT FootRight
        {
          OFFSET 1.453903 -2.647280 -13.863945
          CHANNELS 3 Zrotation Xrotation Yrotation
          End Site
          {
            OFFSET 0 0 0
          }
        }
      }
    }
  }
}
MOTION
Frames: 15
Frame Time: 0.033333
23.424488 70.741586 265.757039 -0.000000 0.000000 -9.716883 0.000000 0.000000 9.716883 -0.000000 0.000000 0.000000 -0.000000 0.000000 0.000000 0.000000 0.000000 0.000000 -0.000000 0.000000 0.000000 -0.000000 0.000000 0.000000 -0.000000 0.000000 0.000000 -0.000000 0.000000 0.000000 0.000000 0.000000 0.000000 0.000000 0.000000 0.000000 -0.000000 0.000000 0.000000 -0.000000 0.000000 0.000000 -0.000000 0.000000 0.000000 -0.000000 0.000000 0.000000 0.000000 0.000000 0.000000 0.000000 0.000000 0.000000 0.000000 0.000000 9.716883 -0.000000 0.000000 0.000000 -0.000000 0.000000 0.000000 0.000000 0.000000 0.000000 0.000000 0.000000 9.716883 -0.000000 0.000000 0.000000 -0.000000 0.000000 0.000000 0.000000 0.000000 0.000000
23.397443 70.734314 265.818022 0.063109 0.065945 -9.539718 -0.051307 -0.075492 9.539647 -0.000000 0.000000 0.000000 -0.000000 0.000000 0.000000 0.000000 0.000000 0.000000 -0.000000 0.000000 0.000000 -0.850786 0.775629 -0.352823 3.001589 -1.357576 0.725941 -5.550443 -0.403760 -0.587013 0.000000 0.000000 0.000000 0.000000 0.000000 0.000000 -0.000000 0.000000 0.000000 -0.000000 0.000000 0.000000 3.471811 0.306297 0.853474 -8.257555 3.362810 0.236739 0.000000 0.000000 0.000000 0.000000 0.000000 0.000000 -0.051307 -0.075492 9.539647 -0.000000 0.000000 0.000000 -0.650436 -2.548786 -1.213178 0.000000 0.000000 0.000000 -0.051307 -0.075492 9.539647 -0.000000 0.000000 0.000000 -0.000000 0.000000 0.000000 0.000000 0.000000 0.000000
23.369232 70.726692 265.880266 0.123450 0.127815 -9.401399 -0.100914 -0.146264 9.401132 -0.000000 0.000000 0.000000 -0.000000 0.000000 0.000000 0.000000 0.000000 0.000000 0.929466 -0.106303 0.116878 -2.534324 1.649111 -0.780051 5.263888 -2.525699 1.381343 -9.218302 -0.457285 -0.921305 0.000000 0.000000 0.000000 0.000000 0.000000 0.000000 -0.000000 0.000000 0.000000 0.340801 0.833434 0.153591 5.922119 -0.267162 1.462387 -14.132507 5.458137 0.347866 0.000000 0.000000 0.000000 0.000000 0.000000 0.000000 -0.100914 -0.146264 9.401132 -0.000000 0.000000 0.000000 -1.112236 -4.562346 -2.298832 0.000000 0.000000 0.000000 -0.100914 -0.146264 9.401132 -0.000000 0.000000 0.000000 -0.000000 0.000000 0.000000 0.000000 0.000000 0.000000
23.339854 70.718721 265.943773 0.180989 0.185570 -9.301915 -0.148615 -0.212383 9.301346 -0.000000 0.000000 0.000000 -0.000000 0.000000 0.000000 0.000000 0.000000 0.000000 1.227672 -0.086869 0.143040 -3.466077 2.360410 -1.075001 6.896906 -3.537739 1.940576 -11.591803 -0.317076 -1.081337 0.000000 0.000000 0.000000 0.000000 0.000000 0.000000 -0.000000 0.000000 0.000000 0.440942 1.182612 0.203072 8.039144 -0.396790 2.024552 -18.382550 6.752663 0.342297 0.000000 0.000000 0.000000 0.000000 0.000000 0.000000 -0.148615 -0.212383 9.301346 -0.000000 0.000000 0.000000 -1.341812 -5.989923 -3.213036 0.000000 0.000000 0.000000 -0.148615 -0.212383 9.301346 -0.000000 0.000000 0.000000 -0.000000 0.000000 0.000000 0.000000 0.000000 0.000000
23.309309 70.710399 266.008542 0.235691 0.239173 -9.241267 -0.194225 -0.273917 9.240311 -0.000000 0.000000 0.000000 -0.000000 0.000000 0.000000 0.000000 0.000000 0.000000 1.423304 -0.021471 0.148482 -4.147909 2.967037 -1.300874 7.967580 -4.411643 2.381713 -13.005462 -0.047086 -1.114971 0.000000 0.000000 0.000000 0.000000 0.000000 0.000000 -0.000000 0.000000 0.000000 0.494674 1.486590 0.235143 9.710849 -0.529675 2.491179 -21.445640 7.490382 0.247414 0.000000 0.000000 0.000000 0.000000 0.000000 0.000000 -0.194225 -0.273917 9.240311 -0.000000 0.000000 0.000000 -1.305306 -6.800665 -3.922790 0.000000 0.000000 0.000000 -0.194225 -0.273917 9.240311 -0.000000 0.000000 0.000000 -0.163807 0.068314 0.893377 0.000000 0.000000 0.000000
23.277596 70.701727 266.074573 0.287527 0.288594 -9.219475 -0.237579 -0.330929 9.218065 -0.000000 0.000000 0.000000 -0.000000 0.000000 0.000000 0.000000 0.000000 0.000000 1.520372 0.089236 0.133663 -4.561140 3.446447 -1.453348 8.516030 -5.154684 2.685650 -13.655870 0.332077 -1.049788 0.000000 0.000000 0.000000 0.000000 0.000000 0.000000 -0.000000 0.000000 0.000000 0.502313 1.745356 0.250285 10.997300 -0.668530 2.870895 -23.583113 7.801156 0.084634 0.000000 0.000000 0.000000 0.000000 0.000000 0.000000 -0.484710 0.463226 9.204668 0.116927 -0.823459 0.014522 -0.981850 -6.979215 -4.408868 0.000000 0.000000 0.000000 -0.237579 -0.330929 9.218065 -0.000000 0.000000 0.000000 -0.190247 0.082903 1.038985 0.000000 0.000000 0.000000
23.241781 70.698179 266.147620 0.337779 0.337551 -9.277829 -0.278946 -0.387587 9.275890 -0.000000 0.000000 0.000000 -0.000000 0.000000 0.000000 0.000000 0.000000 0.000000 1.576502 0.293575 0.093656 -4.893587 3.612053 -1.548303 9.693363 -5.205539 3.084163 -14.216085 0.112636 -1.234283 0.000000 0.000000 0.000000 0.000000 0.000000 0.000000 -0.000000 0.000000 0.000000 0.545897 2.046180 0.278700 11.839005 -0.791383 3.116043 -24.692167 6.899266 -0.409621 0.000000 0.000000 0.000000 0.000000 0.000000 0.000000 -0.497263 0.477514 9.256138 0.076333 -0.888951 0.020516 -1.320394 -6.575806 -3.719670 0.000000 0.000000 0.000000 -0.278946 -0.387587 9.275890 -0.000000 0.000000 0.000000 -0.220331 0.098325 1.203892 0.000000 0.000000 0.000000
23.214007 70.687970 266.205657 0.381778 0.377702 -9.366732 -0.315226 -0.434794 9.364278 -0.000000 0.000000 0.000000 -0.000000 0.000000 0.000000 0.000000 0.000000 0.000000 1.431766 0.627260 0.005243 -4.609796 3.769335 -1.516632 8.844892 -6.593894 3.007847 -12.923457 -0.146081 -1.224216 0.000000 0.000000 0.000000 0.000000 0.000000 0.000000 -0.000000 0.000000 0.000000 0.465645 2.264577 0.264498 12.182561 -0.643141 3.154568 -25.434055 6.081346 -0.647513 0.000000 0.000000 0.000000 0.000000 0.000000 0.000000 -0.513445 0.510517 9.338582 0.042206 -0.964947 0.026183 -0.648215 -5.599495 -3.618900 0.000000 0.000000 0.000000 -0.315226 -0.434794 9.364278 -0.000000 0.000000 0.000000 -0.232909 0.115277 1.277945 0.000000 0.000000 0.000000
23.182175 70.662997 266.282546 0.432928 0.435843 -9.350253 -0.356379 -0.500379 9.347050 -0.000000 0.000000 0.000000 -0.000000 0.000000 0.000000 0.000000 0.000000 0.000000 1.239538 0.840915 -0.060242 -4.077073 3.818716 -1.414218 7.723543 -7.444203 2.769832 -11.409147 3.402171 -0.192808 0.000000 0.000000 0.000000 0.000000 0.000000 0.000000 -0.000000 0.000000 0.000000 0.366140 2.388190 0.239859 12.541764 -1.137378 3.398902 -25.906608 6.415046 -0.655907 0.000000 0.000000 0.000000 0.000000 0.000000 0.000000 -0.526389 0.547187 9.313735 -0.001767 -1.061269 0.033368 1.041624 -3.634790 -3.808773 0.000000 0.000000 0.000000 -0.356379 -0.500379 9.347050 -0.000000 0.000000 0.000000 -0.250132 0.134820 1.377392 0.000000 0.000000 0.000000
23.152306 70.648470 266.356621 0.472481 0.471868 -9.418931 -0.388907 -0.542815 9.415143 -0.000000 0.000000 0.000000 -0.000000 0.000000 0.000000 0.000000 0.000000 0.000000 0.935928 1.013618 -0.126257 -3.274718 3.859538 -1.256637 6.200465 -7.898754 2.393764 -10.987627 6.247533 0.733767 0.000000 0.000000 0.000000 0.000000 0.000000 0.000000 0.656798 0.593876 0.282668 -0.528915 1.714885 -0.129188 12.694759 -1.386809 3.541497 -25.019252 6.517256 -0.729417 0.000000 0.000000 0.000000 0.000000 0.000000 0.000000 -0.559119 0.567248 9.378707 -0.012957 -1.122962 0.036346 3.440926 -1.027934 -4.293832 0.000000 0.000000 0.000000 -0.388907 -0.542815 9.415143 -0.000000 0.000000 0.000000 -0.254907 0.141362 1.405483 0.000000 0.000000 0.000000
23.115067 70.635540 266.436993 0.501000 0.498053 -9.477967 -0.412169 -0.573736 9.473726 -0.000000 0.000000 0.000000 -0.000000 0.000000 0.000000 0.000000 0.000000 0.000000 0.655860 1.041969 -0.158081 -2.388807 3.855204 -1.069390 4.517420 -8.165573 1.914863 -7.750006 6.930189 0.893907 0.000000 0.000000 0.000000 0.000000 0.000000 0.000000 0.695453 0.737472 0.324785 -0.968712 1.565838 -0.303349 13.333113 -1.349190 3.750506 -24.992454 7.430174 -0.531226 0.000000 0.000000 0.000000 0.000000 0.000000 0.000000 -0.569165 0.613582 9.432226 -0.039708 -1.196994 0.041140 5.139095 0.734208 -4.738297 0.000000 0.000000 0.000000 -0.412169 -0.573736 9.473726 -0.000000 0.000000 0.000000 -0.246445 0.142501 1.361892 0.000000 0.000000 0.000000
23.060640 70.605487 266.539905 0.526033 0.563492 -9.315238 0.009086 0.067826 9.335160 -0.028888 0.024056 0.024797 -0.517625 -0.652567 -0.050728 0.000000 0.000000 0.000000 0.014984 0.456480 -0.228578 -2.162749 3.390949 -0.959748 5.020762 -7.592346 1.963733 -8.663178 7.880426 1.085485 0.000000 0.000000 0.000000 0.000000 0.000000 0.000000 0.240990 0.220650 0.327986 -1.507720 1.297517 -0.514971 13.909160 -1.444416 3.996368 -23.515497 6.891625 -0.941821 0.000000 0.000000 0.000000 0.000000 0.000000 0.000000 -0.544901 0.692248 9.258301 -0.099082 -1.334885 0.050854 5.467738 1.251072 -4.706292 0.000000 0.000000 0.000000 -0.539054 0.168186 9.490507 -0.023840 -0.816620 -0.180878 -0.269501 0.152342 1.486905 0.000000 0.000000 0.000000
23.012321 70.582423 266.631119 0.563332 0.639270 -9.067528 -0.004884 0.070519 9.088021 -0.033314 0.027838 0.025841 -0.536941 -0.737033 -0.053575 0.000000 0.000000 0.000000 -0.012060 0.425795 -0.242976 -2.077778 3.180311 -0.906286 6.360762 -7.402116 2.276281 -10.311104 9.094583 1.220795 0.000000 0.000000 0.000000 0.000000 0.000000 0.000000 0.296610 0.248247 0.369230 -2.003276 1.141082 -0.702524 14.085723 -1.972927 4.229480 -21.777476 6.930405 -1.132679 0.000000 0.000000 0.000000 0.000000 0.000000 0.000000 -0.520601 0.770429 8.997709 -0.168919 -1.482290 0.061657 4.643778 0.734076 -4.245010 0.000000 0.000000 0.000000 -0.514239 0.146673 9.247829 -0.081399 -0.864869 -0.187214 -0.297054 0.160608 1.634532 0.000000 0.000000 0.000000
22.977567 70.563022 266.703107 0.599471 0.723591 -8.813859 -0.024390 0.065716 8.834536 -0.030308 0.031037 0.027186 -0.555868 -0.822785 -0.056433 0.000000 0.000000 0.000000 0.062573 0.360614 -0.239699 -1.912446 2.969071 -0.816833 5.895905 -7.563450 2.094579 -7.758375 9.994349 1.218546 0.000000 0.000000 0.000000 0.000000 0.000000 0.000000 0.327140 0.217702 0.391567 -2.499333 1.063541 -0.877782 14.524777 -3.475621 4.819284 -18.969750 5.249472 -2.215157 0.000000 0.000000 0.000000 0.000000 0.000000 0.000000 -0.506443 0.827615 8.732896 -0.223637 -1.619306 0.070631 2.982438 -0.473597 -3.429490 0.000000 0.000000 0.000000 -0.512672 0.081465 8.994697 -0.108177 -0.882270 -0.189044 -0.320755 0.173740 1.764284 0.000000 0.000000 0.000000
22.947243 70.546664 266.773030 0.634983 0.803498 -8.509135 -0.041961 0.060531 8.529977 -0.023739 0.033754 0.028875 -0.734906 -1.893463 -0.025761 0.000000 0.000000 0.000000 0.129305 0.294015 -0.235392 -1.497957 2.432895 -0.611319 4.994091 -6.578598 1.721411 -7.165849 10.270900 1.353581 0.000000 0.000000 0.000000 0.000000 0.000000 0.000000 0.329937 0.170262 0.403113 -2.904767 0.932977 -1.025004 14.799671 -4.650248 5.261326 -15.952353 4.805459 -2.910006 0.000000 0.000000 0.000000 0.000000 0.000000 0.000000 -0.447700 0.874739 8.413468 -0.318906 -1.735327 0.082443 1.457101 -1.996032 -2.989490 0.000000 0.000000 0.000000 -0.525741 0.006906 8.689118 -0.118910 -0.887699 -0.189432 -0.339470 0.188766 1.868809 0.000000 0.000000 0.000000
